# AST/ASF file generated using VICON BodyLanguage
# -----------------------------------------------
:version 1.10
:name VICON
:units
  mass 1.0
  length 0.45
  angle deg
:documentation
   .ast/.asf automatically generated from VICON data using
   VICON BodyBuilder and BodyLanguage model FoxedUp or BRILLIANT.MOD
:root
   order TX TY TZ RX RY RZ
   axis XYZ
   position 0 0 0  
   orientation 0 0 0 
:bonedata
  begin
     id 1 
     name lhipjoint
     direction 0.645422 -0.672597 0.361999 
     length 2.39934 
     axis 0 0 0  XYZ
  end
  begin
     id 2 
     name lfemur
     direction 0.34202 -0.939693 0  
     length 6.58112  
     axis 0 0 20  XYZ
    dof rx ry rz
    limits (-160.0 20.0)
           (-70.0 70.0)
           (-60.0 70.0)
  end
  begin
     id 3 
     name ltibia
     direction 0.34202 -0.939693 0   
     length 7.02673   
     axis 0 0 20   XYZ
    dof rx
    limits (-10.0 170.0)
  end
  begin
     id 4 
     name lfoot
     direction 0.0835106 -0.229444 0.969733   
     length 2.08772   
     axis -90 7.62852e-016 20   XYZ
    dof rx rz
    limits (-45.0 90.0)
           (-70.0 20.0)
  end
  begin
     id 5 
     name ltoes
     direction 1.5358e-011 -4.21925e-011 1   
     length 1.04844   
     axis -90 7.62852e-016 20   XYZ
    dof rx
    limits (-90.0 20.0)
  end
  begin
     id 6 
     name rhipjoint
     direction -0.644959 -0.672941 0.362185   
     length 2.39812  
     axis 0 0 0  XYZ 
  end
  begin
     id 7 
     name rfemur
     direction -0.34202 -0.939693 0   
     length 6.67015   
     axis 0 0 -20   XYZ
    dof rx ry rz
    limits (-160.0 20.0)
           (-70.0 70.0)
           (-70.0 60.0)
  end
  begin
     id 8 
     name rtibia
     direction -0.34202 -0.939693 0   
     length 7.35735   
     axis 0 0 -20   XYZ
    dof rx
    limits (-10.0 170.0)
 end
 begin
     id 9 
     name rfoot
     direction -0.0670769 -0.184292 0.98058   
     length 2.25469  
     axis -90 -7.62852e-016 -20   XYZ
    dof rx rz
    limits (-45.0 90.0)
           (-20.0 70.0)
  end
  begin
     id 10 
     name rtoes
     direction -1.53575e-011 -4.21908e-011 1   
     length 1.13399   
     axis -90 -7.62852e-016 -20   XYZ
    dof rx
    limits (-90.0 20.0)
  end
  begin
     id 11 
     name lowerback
     direction -0.0188328 0.993434 -0.112847   
     length 2.27656   
     axis 0 0 0   XYZ
    dof rx ry rz
    limits (-20.0 45.0)
           (-30.0 30.0)
           (-30.0 30.0)
  end
  begin
     id 12 
     name upperback
     direction 0.00983139 0.998968 -0.04435   
     length 2.28631   
     axis 0 0 0   XYZ
    dof rx ry rz
    limits (-20.0 45.0)
           (-30.0 30.0)
           (-30.0 30.0)
  end
  begin
     id 13 
     name thorax
     direction 0.0177718 0.999807 0.00833073   
     length 2.30999   
     axis 0 0 0   XYZ
    dof rx ry rz
    limits (-20.0 45.0)
           (-30.0 30.0)
           (-30.0 30.0)
  end
  begin
     id 14 
     name lowerneck
     direction -0.0835025 0.993181 0.0813558   
     length 1.39447   
     axis 0 0 0   XYZ
    dof rx ry rz
    limits (-20.0 45.0)
           (-30.0 30.0)
           (-30.0 30.0)
  end
  begin
     id 15 
     name upperneck
     direction 0.210059 0.976535 0.0474817   
     length 1.39882   
     axis 0 0 0   XYZ
    dof rx ry rz
    limits (-20.0 45.0)
           (-30.0 30.0)
           (-30.0 30.0)
  end
  begin
     id 16
     name head
     direction 0.0780891 0.996944 -0.00207154  
     length 1.41828  
     axis 0 0 0   XYZ
    dof rx ry rz
    limits (-20.0 45.0)
           (-30.0 30.0)
           (-30.0 30.0)
  end
  begin
     id 17 
     name lclavicle
     direction 0.982414 0.166355 -0.0847829  
     length 3.57922  
     axis 0 0 0   XYZ
    dof ry rz
    limits (-20.0 10.0)
           (0.0 20.0)
  end
  begin
     id 18 
     name lhumerus
     direction 1 -4.48975e-011 5.47647e-028   
     length 4.76405   
     axis -180 -30 -90   XYZ
    dof rx ry rz
    limits (-60.0 90.0)
           (-90.0 90.0)
           (-90.0 90.0)
  end
  begin
     id 19
     name lradius
     direction 1 -4.48949e-011 -8.32142e-027   
     length 3.13759   
     axis -180 -30 -90   XYZ
    dof rx
    limits (-10.0 170.0)
  end
  begin
     id 20
     name lwrist
     direction 1 -4.48978e-011 -1.32705e-026   
     length 1.56879   
     axis 9.60836e-015 90 90   XYZ
    dof ry
    limits (-180.0 0.0)
 end
  begin
     id 21 
     name lhand
     direction 1 -4.48975e-011 -2.65409e-026   
     length 0.732262   
     axis 1.69354e-014 90 90   XYZ
    dof rx rz
    limits (-90.0 90.0)
           (-45.0 45.0)
  end
  begin
     id 22 
     name lfingers
     direction 1 -4.48923e-011 -5.30819e-026   
     length 0.590368   
     axis 3.38708e-014 90 90   XYZ
    dof rx
    limits (0.0 90.0)
  end
  begin
     id 23
     name lthumb
     direction 0.707107 -6.34914e-011 0.707107   
     length 0.847654   
     axis -90 45 2.85299e-015   XYZ
    dof rx rz
    limits (-45.0 45.0)
           (-45.0 45.0)
  end
  begin
     id 24 
     name rclavicle
     direction -0.963658 0.245183 -0.106063   
     length 3.43472  
     axis 0 0 0   XYZ 
    dof ry rz
    limits (-10.0 20.0)
           (-20.0 0.0)
  end
  begin
     id 25 
     name rhumerus
     direction -1 -4.48963e-011 -1.64784e-027  
     length 5.10161   
     axis -180 30 90   XYZ
    dof rx ry rz
    limits (-90.0 60.0)
           (-90.0 90.0)
           (-90.0 90.0)
  end
  begin
     id 26 
     name rradius
     direction -1 -4.48969e-011 -2.87943e-027   
     length 3.23267   
     axis -180 30 90   XYZ
    dof rx
    limits (-10.0 170.0)
  end
  begin
     id 27 
     name rwrist
     direction -1 -4.48982e-011 -1.32705e-026   
     length 1.61633   
     axis 9.60836e-015 -90 -90   XYZ
    dof ry
    limits (-180.0 0.0)
  end
  begin
     id 28
     name rhand
     direction -1 -4.48963e-011 -2.65409e-026   
     length 0.702   
     axis 1.69354e-014 -90 -90   XYZ
    dof rx rz
    limits (-90.0 90.0)
           (-45.0 45.0)
  end
  begin
     id 29
     name rfingers
     direction -1 -4.48934e-011 -5.30819e-026   
     length 0.565971   
     axis 3.38708e-014 -90 -90   XYZ
    dof rx
    limits (0.0 90.0)
  end
  begin
     id 30
     name rthumb
     direction -0.707107 -6.34908e-011 0.707107   
     length 0.812624   
     axis -90 -45 -2.85299e-015   XYZ
    dof rx rz
    limits (-45.0 45.0)
           (-45.0 45.0)
  end
:hierarchy
  begin
    root lhipjoint rhipjoint lowerback
    lhipjoint lfemur
    lfemur ltibia
    ltibia lfoot
    lfoot ltoes
    rhipjoint rfemur
    rfemur rtibia
    rtibia rfoot
    rfoot rtoes
    lowerback upperback
    upperback thorax
    thorax lowerneck lclavicle rclavicle
    lowerneck upperneck
    upperneck head
    lclavicle lhumerus
    lhumerus lradius
    lradius lwrist
    lwrist lhand lthumb
    lhand lfingers
    rclavicle rhumerus
    rhumerus rradius
    rradius rwrist
    rwrist rhand rthumb
    rhand rfingers
  end

#!OML:ASF \\sashay\E\basketball\basketball\Project 1\Capture day 1\Session 1\Subject.ASF
:FULLY-SPECIFIED
:DEGREES
1
root -37.6533 16.1102 -9.49584 11.2587 75.3559 5.3365
lowerback 22.0515 2.24626 -1.6479
upperback 10.618 3.25624 -1.28639
thorax -0.720377 1.89298 -1.15604
lowerneck -11.0309 13.579 -2.2107
upperneck -14.284 18.5526 -8.83122
head -2.11943 9.9381 -2.12234
rclavicle 2.2413e-014 -3.47873e-015
rhumerus -18.0842 -14.7655 -76.5021
rradius 52.9913
rwrist -16.1895
rhand -35.2702 39.0559
rfingers 7.12502
rthumb -8.40558 9.24312
lclavicle 2.2413e-014 -3.47873e-015
lhumerus -25.6247 20.3176 60.1392
lradius 75.3693
lwrist 27.2083
lhand -5.76768 25.6827
lfingers 7.12502
lthumb 20.0557 54.6676
rfemur -21.6156 -7.28638 12.2203
rtibia 60.3386
rfoot -10.5341 -9.26737
rtoes -21.6214
lfemur -34.3592 16.7158 -24.4296
ltibia 58.4903
lfoot 7.7088 -3.91841
ltoes -5.054
2
root -37.3615 16.2048 -9.54556 10.9601 74.9143 4.95531
lowerback 21.1451 2.29284 -1.08576
upperback 10.9279 3.4551 -1.73468
thorax 0.127689 2.03522 -1.93211
lowerneck -11.1716 13.9856 -1.57468
upperneck -14.3059 19.0414 -9.09977
head -2.00288 10.1655 -2.25369
rclavicle -3.00413e-014 1.08089e-014
rhumerus -18.7877 -15.5056 -76.9151
rradius 53.4861
rwrist -17.5845
rhand -35.566 38.7063
rfingers 7.12502
rthumb -8.69099 8.9052
lclavicle -3.00413e-014 1.08089e-014
lhumerus -26.4079 21.4186 58.748
lradius 75.0072
lwrist 30.7561
lhand -3.14106 26.4864
lfingers 7.12502
lthumb 22.5786 55.186
rfemur -21.4046 -7.89222 12.3062
rtibia 59.1769
rfoot -10.9975 -8.82055
rtoes -15.1262
lfemur -34.0546 17.3027 -23.6919
ltibia 58.8731
lfoot 11.0035 -5.66038
ltoes 0.54263
3
root -37.0708 16.2977 -9.59555 10.6798 74.4699 4.66631
lowerback 20.9917 2.48807 -1.10575
upperback 10.743 3.68024 -1.7392
thorax 0.00679998 2.13623 -1.96967
lowerneck -11.162 14.34 -1.38722
upperneck -13.8948 19.4864 -9.21199
head -1.82271 10.3578 -2.26327
rclavicle -1.16289e-014 1.98288e-014
rhumerus -20.1266 -15.4143 -76.6172
rradius 53.9873
rwrist -19.2644
rhand -35.8062 38.3443
rfingers 7.12502
rthumb -8.92283 8.55301
lclavicle -1.16289e-014 1.98288e-014
lhumerus -28.3035 22.4021 57.4665
lradius 74.6084
lwrist 34.7346
lhand -0.634539 27.9952
lfingers 7.12502
lthumb 24.9825 56.3818
rfemur -21.1923 -8.57714 12.3523
rtibia 58.2311
rfoot -10.468 -8.89379
rtoes -13.651
lfemur -33.7592 17.8268 -22.9088
ltibia 59.4952
lfoot 13.68 -7.73132
ltoes 3.88867
4
root -36.7856 16.3547 -9.64852 10.8784 74.1692 4.69037
lowerback 20.3067 2.46207 -0.745977
upperback 10.8069 3.71801 -2.13808
thorax 0.469719 2.18411 -2.55982
lowerneck -11.3375 14.5954 -0.854114
upperneck -13.8609 19.7903 -9.24189
head -1.7193 10.4866 -2.3077
rclavicle 3.19049e-014 -2.21148e-014
rhumerus -20.9162 -15.5444 -77.0405
rradius 54.4317
rwrist -20.8351
rhand -35.576 38.419
rfingers 7.12502
rthumb -8.70068 8.61831
lclavicle 3.19049e-014 -2.21148e-014
lhumerus -29.5504 23.5751 55.9522
lradius 73.8701
lwrist 38.5385
lhand 2.13391 28.9659
lfingers 7.12502
lthumb 27.6326 56.9566
rfemur -21.1288 -9.30377 12.2695
rtibia 57.3372
rfoot -9.54114 -9.0907
rtoes -13.3536
lfemur -33.6871 16.5479 -22.1861
ltibia 60.2287
lfoot 14.332 -7.99977
ltoes 4.22399
5
root -36.498 16.3998 -9.69949 10.8157 73.8623 4.44359
lowerback 20.8936 2.78784 -1.46584
upperback 9.85447 3.90341 -1.53231
thorax -0.944264 2.18714 -1.62401
lowerneck -10.8898 14.816 -1.26462
upperneck -13.0071 20.088 -9.05796
head -1.55612 10.5939 -2.16955
rclavicle -2.33572e-015 -9.0447e-015
rhumerus -23.3255 -14.3115 -75.5749
rradius 55.1015
rwrist -22.6344
rhand -35.3028 38.2374
rfingers 7.12502
rthumb -8.43698 8.42596
lclavicle -2.33572e-015 -9.0447e-015
lhumerus -33.1461 24.5522 55.0033
lradius 73.2106
lwrist 41.1427
lhand 5.14656 28.7703
lfingers 7.12502
lthumb 30.5098 56.264
rfemur -20.9081 -9.90598 12.2003
rtibia 56.3461
rfoot -8.40611 -9.24337
rtoes -13.1752
lfemur -33.5963 15.4833 -21.4635
ltibia 60.9648
lfoot 12.9286 -6.30961
ltoes -1.8871
6
root -36.2058 16.4579 -9.74484 10.578 73.4504 4.13925
lowerback 19.104 2.69619 -0.764565
upperback 10.7995 4.02288 -2.19248
thorax 1.08122 2.32912 -2.58845
lowerneck -10.7008 14.8874 -0.522821
upperneck -14.2793 20.1072 -9.52924
head -1.88364 10.6604 -2.50637
rclavicle -4.5969e-015 4.42296e-015
rhumerus -22.4756 -15.1412 -76.73
rradius 55.136
rwrist -23.4701
rhand -35.5472 37.5045
rfingers 7.12502
rthumb -8.67283 7.7027
lclavicle -4.5969e-015 4.42296e-015
lhumerus -33.332 25.5604 53.8999
lradius 73.1737
lwrist 45.6915
lhand 4.3977 31.4354
lfingers 7.12502
lthumb 29.7953 59.0595
rfemur -20.3516 -10.2049 12.0391
rtibia 55.2033
rfoot -7.23909 -9.29931
rtoes -13.1547
lfemur -33.3262 15.831 -20.7493
ltibia 61.5252
lfoot 10.7482 -2.17177
ltoes -9.69349
7
root -35.9068 16.5372 -9.78359 10.0848 73.0511 3.6771
lowerback 20.3245 3.07992 -1.50455
upperback 9.49132 4.23708 -1.71264
thorax -1.03497 2.3384 -1.84219
lowerneck -10.0618 15.0172 -0.581297
upperneck -13.1223 20.2449 -9.12424
head -1.64328 10.6495 -2.34755
rclavicle -1.44119e-015 2.127e-014
rhumerus -25.4709 -13.8407 -75.4494
rradius 55.6505
rwrist -24.3328
rhand -35.4119 37.0674
rfingers 7.12502
rthumb -8.54227 7.26021
lclavicle -1.44119e-015 2.127e-014
lhumerus -38.0112 24.748 52.4574
lradius 73.8976
lwrist 49.79
lhand 5.8063 32.8065
lfingers 7.12502
lthumb 31.1387 60.1814
rfemur -19.4235 -10.3495 11.8834
rtibia 53.8703
rfoot -6.0317 -9.44429
rtoes -13.6233
lfemur -33.0294 17.9262 -19.896
ltibia 61.6873
lfoot 8.50512 3.01383
ltoes -10.4726
8
root -35.6154 16.5846 -9.81787 9.11923 72.6726 2.78875
lowerback 20.1234 3.26882 -1.60321
upperback 9.37047 4.45403 -1.66275
thorax -1.07121 2.43513 -1.77062
lowerneck -9.89767 14.9802 -0.161679
upperneck -12.9294 20.1453 -9.14247
head -1.56488 10.5708 -2.40846
rclavicle -2.92959e-014 1.44492e-014
rhumerus -26.3891 -13.5267 -75.3245
rradius 55.7395
rwrist -24.4494
rhand -34.7552 37.2568
rfingers 7.12502
rthumb -7.90847 7.42477
lclavicle -2.92959e-014 1.44492e-014
lhumerus -40.4097 24.8834 51.402
lradius 73.9985
lwrist 53.4599
lhand 8.25887 33.6252
lfingers 7.12502
lthumb 33.4731 60.5244
rfemur -18.4666 -10.367 11.8665
rtibia 52.6378
rfoot -4.57218 -9.71671
rtoes -14.6109
lfemur -32.6977 18.9924 -18.7307
ltibia 61.4889
lfoot 5.92698 7.98321
ltoes -11.7227
9
root -35.3307 16.602 -9.84912 8.49434 72.1588 2.24367
lowerback 20.4114 3.50272 -1.94648
upperback 8.87109 4.63593 -1.66056
thorax -1.77729 2.49836 -1.65813
lowerneck -9.54018 14.9137 0.189298
upperneck -12.5723 20.0178 -8.82982
head -1.50763 10.4643 -2.37362
rclavicle -6.72265e-014 2.03754e-014
rhumerus -27.8012 -12.9298 -75.2433
rradius 55.9489
rwrist -24.481
rhand -34.2463 37.3867
rfingers 7.12502
rthumb -7.41731 7.53675
lclavicle -6.72265e-014 2.03754e-014
lhumerus -43.4326 24.7761 49.961
lradius 74.0369
lwrist 56.9198
lhand 11.0357 34.0567
lfingers 7.12502
lthumb 36.108 60.3466
rfemur -17.6257 -10.1403 11.6778
rtibia 51.6102
rfoot -2.80276 -9.58442
rtoes -16.3787
lfemur -32.0544 19.6974 -17.4756
ltibia 60.7617
lfoot 3.73145 10.5133
ltoes -16.3327
10
root -35.0439 16.5968 -9.88389 8.92232 71.8037 2.75908
lowerback 19.6801 3.59618 -2.18367
upperback 9.07506 4.74925 -1.97995
thorax -1.17408 2.56081 -1.82386
lowerneck -9.56277 14.6941 0.7672
upperneck -12.6741 19.6813 -8.77093
head -1.50074 10.276 -2.44843
rclavicle 3.52843e-015 -1.54058e-014
rhumerus -28.0172 -12.9952 -75.6943
rradius 55.9004
rwrist -24.2302
rhand -33.7702 37.7332
rfingers 7.12502
rthumb -6.9577 7.86753
lclavicle 3.52843e-015 -1.54058e-014
lhumerus -45.2395 25.3274 48.7308
lradius 73.8806
lwrist 60.002
lhand 13.4226 34.1331
lfingers 7.12502
lthumb 38.3648 59.8321
rfemur -16.7289 -10.033 11.0441
rtibia 50.8605
rfoot -1.74726 -9.02853
rtoes -16.1776
lfemur -31.256 19.3289 -16.431
ltibia 59.5965
lfoot 1.83591 11.2875
ltoes -19.3986
11
root -34.7534 16.5797 -9.91874 9.80312 71.6726 3.7249
lowerback 20.4683 3.92505 -3.52088
upperback 8.02409 4.80885 -1.50281
thorax -2.847 2.52648 -0.696277
lowerneck -9.28377 14.45 0.632325
upperneck -11.3341 19.3533 -8.18987
head -1.19289 10.0356 -2.20992
rclavicle 8.69683e-016 -7.1314e-015
rhumerus -30.2699 -11.7387 -74.6516
rradius 56.129
rwrist -24.1202
rhand -33.4273 38.0591
rfingers 7.12502
rthumb -6.62672 8.18281
lclavicle 8.69683e-016 -7.1314e-015
lhumerus -49.5919 25.2225 47.4756
lradius 74.4084
lwrist 63.4427
lhand 13.3001 35.4379
lfingers 7.12502
lthumb 38.2493 61.1689
rfemur -15.6758 -10.1781 10.2106
rtibia 50.2737
rfoot -1.51087 -8.46584
rtoes -13.4478
lfemur -30.5368 18.5801 -15.5548
ltibia 58.0707
lfoot 0.482628 11.0146
ltoes -20.8673
12
root -34.4629 16.5552 -9.94881 10.1197 71.591 4.10423
lowerback 19.965 3.98636 -3.73996
upperback 8.00121 4.86184 -1.77406
thorax -2.60799 2.55176 -0.837568
lowerneck -9.40851 14.0184 0.943087
upperneck -11.0589 18.778 -7.57726
head -1.13951 9.71285 -2.06894
rclavicle 5.11871e-015 -1.60022e-014
rhumerus -30.9688 -11.9047 -75.0536
rradius 56.3104
rwrist -23.7101
rhand -33.2624 38.1787
rfingers 7.12502
rthumb -6.46755 8.29743
lclavicle 5.11871e-015 -1.60022e-014
lhumerus -51.8743 25.8464 45.993
lradius 74.8793
lwrist 66.3966
lhand 9.79235 37.5899
lfingers 7.12502
lthumb 34.9294 64.1624
rfemur -14.62 -10.3104 9.58345
rtibia 49.7545
rfoot -0.830718 -7.8987
rtoes -12.6503
lfemur -29.8325 17.7469 -14.4272
ltibia 56.3253
lfoot -0.949654 10.672
ltoes -15.3487
13
root -34.1727 16.5248 -9.97493 10.0994 71.5723 4.08724
lowerback 19.3326 4.05656 -3.93594
upperback 8.04952 4.95117 -1.94579
thorax -2.23349 2.59307 -0.879771
lowerneck -9.34706 13.4245 1.25881
upperneck -11.2569 17.9735 -7.22025
head -1.24872 9.29926 -2.05651
rclavicle -5.97348e-014 4.63168e-014
rhumerus -31.4832 -12.0843 -75.3734
rradius 56.4027
rwrist -23.3977
rhand -33.0746 38.1044
rfingers 7.12502
rthumb -6.28623 8.21764
lclavicle -5.97348e-014 4.63168e-014
lhumerus -54.1084 26.5812 44.8034
lradius 75.5486
lwrist 67.7316
lhand 9.73719 38.4351
lfingers 7.12502
lthumb 34.877 65.0198
rfemur -13.5927 -10.3195 9.13405
rtibia 49.2651
rfoot 0.215949 -7.48411
rtoes -14.7412
lfemur -29.2592 17.2433 -13.1464
ltibia 54.4854
lfoot -2.14322 10.1757
ltoes -6.76237
14
root -33.8807 16.4768 -9.99762 10.674 71.667 4.6208
lowerback 18.6235 4.1192 -4.44315
upperback 8.05503 4.98552 -2.00274
thorax -1.89702 2.59655 -0.611795
lowerneck -9.18607 12.6913 1.3449
upperneck -11.5654 17.0057 -6.78446
head -1.44171 8.81282 -2.00782
rclavicle -8.75646e-014 7.2954e-014
rhumerus -31.8952 -11.9424 -75.5077
rradius 56.2693
rwrist -23.3077
rhand -33.108 38.2185
rfingers 7.12502
rthumb -6.31843 8.3327
lclavicle -8.75646e-014 7.2954e-014
lhumerus -56.5709 27.4813 43.7798
lradius 76.4545
lwrist 68.4736
lhand 14.7146 37.6832
lfingers 7.12502
lthumb 39.583 63.0337
rfemur -12.5012 -10.4489 8.49882
rtibia 48.8187
rfoot 1.08522 -6.91452
rtoes -16.2262
lfemur -28.8757 16.8779 -12.199
ltibia 52.6164
lfoot -2.77697 9.95399
ltoes -7.29518
15
root -33.588 16.3981 -10.0169 11.2637 71.8375 5.09006
lowerback 17.8126 4.17875 -4.86652
upperback 8.02102 5.03984 -2.10665
thorax -1.53906 2.60998 -0.437726
lowerneck -9.52335 11.8218 1.02407
upperneck -11.2745 15.9353 -5.5474
head -1.46176 8.25611 -1.59347
rclavicle 7.50412e-014 -3.75703e-014
rhumerus -32.4073 -11.8624 -75.7043
rradius 56.1309
rwrist -23.4513
rhand -33.117 38.5745
rfingers 7.12502
rthumb -6.32718 8.68899
lclavicle 7.50412e-014 -3.75703e-014
lhumerus -58.8956 28.5215 42.6362
lradius 77.4131
lwrist 69.3972
lhand 16.4528 37.7867
lfingers 7.12502
lthumb 41.2174 62.6336
rfemur -11.3611 -10.6481 7.9016
rtibia 48.4281
rfoot 1.83623 -6.09449
rtoes -15.5601
lfemur -28.7174 16.9951 -11.4171
ltibia 50.8104
lfoot -3.09387 9.91961
ltoes -17.5906
